{"title":"Grown Ups CAM XViD - IMAGiNE","uid":5656748,"size":1536164281,"categoryP":"video","categoryS":"movies","magnet":"?xt=urn:btih:6d7ede109df628b40e22f0bb54e67e3449189163&amp;dn=Grown+Ups+CAM+XViD+-+IMAGiNE&amp;tr=udp%3A%2F%2Ftracker.openbittorrent.com%3A80&amp;tr=udp%3A%2F%2Fopen.demonii.com%3A1337&amp;tr=udp%3A%2F%2Ftracker.coppersurfer.tk%3A6969&amp;tr=udp%3A%2F%2Fexodus.desync.com%3A6969","seeders":0,"leechers":0,"uploader":"hiest","files":105,"time":1277833595,"description":"Ripper ...........: IMAGiNE IMDB Rating.......:5.3/10 \nVideo Codec.......: XVID Release Date......:29/06/10\nAudio Codec.......:AC3 Theatre Date......:25/06/10\nAudio Bitrate.....:192 Runtime.......:1h 34mn\nSubtitles.........:NIL Language..........:ENGLISH\nResolution...... 688 x 384 IMDb URL..........:http://www.imdb.com/title/tt1375670/\n\n\nDETAILS:\n\nVideo\nID : 0\nFormat : MPEG-4 Visual\nFormat profile : Advanced Simple@L5\nFormat settings, BVOP : Yes\nFormat settings, QPel : No\nFormat settings, GMC : No warppoints\nFormat settings, Matrix : Default (MPEG)\nMuxing mode : Packed bitstream\nCodec ID : XVID\nCodec ID/Hint : XviD\nDuration : 1h 34mn\nBit rate : 1 938 Kbps\nWidth : 688 pixels\nHeight : 384 pixels\nDisplay aspect ratio : 16/9\nFrame rate : 23.976 fps\nResolution : 24 bits\nColorimetry : 4:2:0\nScan type : Progressive\nBits/(Pixel*Frame) : 0.306\nStream size : 1.28 GiB (91%)\nWriting library : XviD 1.2.1 (UTC 2008-12-04)\n\nAudio\nID : 1\nFormat : AC-3\nFormat/Info : Audio Coding 3\nCodec ID : 2000\nDuration : 1h 34mn\nBit rate mode : Constant\nBit rate : 192 Kbps\nChannel(s) : 2 channels\nChannel positions : L R\nSampling rate : 48.0 KHz\nStream size : 130 MiB (9%)\nAlignment : Aligned on interleaves\nInterleave, duration : 42 ms (1.00 video frame)\nInterleave, preload duration : 512 ms\n\n\n\nNOTES:\n\nIMAGiNE bringing you another release.....Grown Ups CAM \n\nFirst off many thanks to slugger and the TA crew for the source files \n\nWell firstly we cropped the borders and resized the video so we only got a 0.1% AR error.....then we cleaned up\nthe video,by changing the chroma,brightness,contrast,rgb colours,also used a smoother aswell.\nThe audio we left it untouched ,hence the AC3 192 audio......we never upscaled it,this is how the original audio was.\nYet again thanks to slugger and TA.\n\nEnjoy\n\n\nScreenshots\n &lt;a href=&quot;\nhttp://postimg.com/image/18000/17107.jpg&quot; rel=&quot;nofollow&quot; target=&quot;_NEW&quot;&gt;\nhttp://postimg.com/image/18000/17107.jpg&lt;/a&gt;","torrent":{"xt":"urn:btih:6d7ede109df628b40e22f0bb54e67e3449189163","amp;dn":"Grown+Ups+CAM+XViD+-+IMAGiNE","amp;tr":["udp%3A%2F%2Ftracker.openbittorrent.com%3A80","udp%3A%2F%2Fopen.demonii.com%3A1337","udp%3A%2F%2Ftracker.coppersurfer.tk%3A6969","udp%3A%2F%2Fexodus.desync.com%3A6969"],"infoHash":"6d7ede109df628b40e22f0bb54e67e3449189163","infoHashBuffer":{"type":"Buffer","data":[109,126,222,16,157,246,40,180,14,34,240,187,84,230,126,52,73,24,145,99]},"announce":[],"urlList":[]}}